<mxfile host="app.diagrams.net" modified="2020-08-25T16:23:36.851Z" agent="5.0 (Windows NT 10.0; Win64; x64) AppleWebKit/537.36 (KHTML, like Gecko) Chrome/84.0.4147.135 Safari/537.36" etag="yzwAtVQqZjWa0tzmtIs8" version="13.6.4" type="github">
  <diagram id="NuoJk24NY9xRfSALPn5J" name="Page-1">
    <mxGraphModel dx="2500" dy="896" grid="1" gridSize="10" guides="1" tooltips="1" connect="1" arrows="1" fold="1" page="1" pageScale="1" pageWidth="827" pageHeight="1169" math="0" shadow="0">
      <root>
        <mxCell id="0" />
        <mxCell id="1" parent="0" />
        <mxCell id="mCA-1Tcpxw28HGwV2KC4-1" value="AbstractProcessor" style="swimlane;fontStyle=0;childLayout=stackLayout;horizontal=1;startSize=26;fillColor=none;horizontalStack=0;resizeParent=1;resizeParentMax=0;resizeLast=0;collapsible=1;marginBottom=0;" vertex="1" parent="1">
          <mxGeometry x="360" y="1030" width="340" height="340" as="geometry" />
        </mxCell>
        <mxCell id="mCA-1Tcpxw28HGwV2KC4-2" value="	private String gwid = &quot;GW.OXC&quot;;&#xa;	private String serviceType = &quot;mspp&quot;;&#xa;	private long defaultCommandTimeout = 120000L;&#xa;	protected String workOrderNum = null;&#xa;	protected String userId = null;&#xa;	protected String sessionId = null;&#xa;	protected String receipType = null;&#xa;	protected String commandType = null;&#xa;	protected String provHistType = null;&#xa;	protected String workType = null;&#xa;	protected String manualYN = null;&#xa;	protected String isUsedNewTcYN = null;&#xa;	protected String isFmTcSeqYN = null;&#xa;	protected Map&lt;String, Object&gt; guiMessage = null;" style="text;strokeColor=none;fillColor=none;align=left;verticalAlign=top;spacingLeft=4;spacingRight=4;overflow=hidden;rotatable=0;points=[[0,0.5],[1,0.5]];portConstraint=eastwest;" vertex="1" parent="mCA-1Tcpxw28HGwV2KC4-1">
          <mxGeometry y="26" width="340" height="314" as="geometry" />
        </mxCell>
        <mxCell id="mCA-1Tcpxw28HGwV2KC4-36" value="" style="group" vertex="1" connectable="0" parent="1">
          <mxGeometry x="-393" width="1220" height="800" as="geometry" />
        </mxCell>
        <mxCell id="mCA-1Tcpxw28HGwV2KC4-5" value="NbiServiceAdapter" style="swimlane;fontStyle=0;childLayout=stackLayout;horizontal=1;startSize=26;fillColor=none;horizontalStack=0;resizeParent=1;resizeParentMax=0;resizeLast=0;collapsible=1;marginBottom=0;" vertex="1" parent="mCA-1Tcpxw28HGwV2KC4-36">
          <mxGeometry y="550" width="440" height="90" as="geometry" />
        </mxCell>
        <mxCell id="mCA-1Tcpxw28HGwV2KC4-6" value="protected Exchange createRequest(String cmd, Object request, boolean sync)&#xa;protected boolean isSuccess(String result)&#xa;protected void sendRequest(Exchange message)&#xa;&#xa;&#xa;" style="text;strokeColor=none;fillColor=none;align=left;verticalAlign=top;spacingLeft=4;spacingRight=4;overflow=hidden;rotatable=0;points=[[0,0.5],[1,0.5]];portConstraint=eastwest;" vertex="1" parent="mCA-1Tcpxw28HGwV2KC4-5">
          <mxGeometry y="26" width="440" height="64" as="geometry" />
        </mxCell>
        <mxCell id="mCA-1Tcpxw28HGwV2KC4-7" value="xxxxCommandRpcImpl" style="swimlane;fontStyle=0;childLayout=stackLayout;horizontal=1;startSize=26;fillColor=none;horizontalStack=0;resizeParent=1;resizeParentMax=0;resizeLast=0;collapsible=1;marginBottom=0;" vertex="1" parent="mCA-1Tcpxw28HGwV2KC4-36">
          <mxGeometry x="70" y="710" width="260" height="90" as="geometry" />
        </mxCell>
        <mxCell id="mCA-1Tcpxw28HGwV2KC4-9" value="Extends" style="endArrow=block;endSize=16;endFill=0;html=1;exitX=0.5;exitY=0;exitDx=0;exitDy=0;entryX=0.455;entryY=1.016;entryDx=0;entryDy=0;entryPerimeter=0;" edge="1" parent="mCA-1Tcpxw28HGwV2KC4-36" source="mCA-1Tcpxw28HGwV2KC4-7" target="mCA-1Tcpxw28HGwV2KC4-6">
          <mxGeometry width="160" relative="1" as="geometry">
            <mxPoint x="170" y="860" as="sourcePoint" />
            <mxPoint x="220" y="650" as="targetPoint" />
          </mxGeometry>
        </mxCell>
        <mxCell id="mCA-1Tcpxw28HGwV2KC4-33" value="" style="group" vertex="1" connectable="0" parent="mCA-1Tcpxw28HGwV2KC4-36">
          <mxGeometry x="510" width="710" height="470" as="geometry" />
        </mxCell>
        <mxCell id="mCA-1Tcpxw28HGwV2KC4-20" value="«interface»&lt;br&gt;&lt;b&gt;ExecutionService&lt;br&gt;&lt;/b&gt;&lt;br&gt;public void executeProcessor(Processor processor, Object message)" style="html=1;" vertex="1" parent="mCA-1Tcpxw28HGwV2KC4-33">
          <mxGeometry x="30" y="125" width="380" height="90" as="geometry" />
        </mxCell>
        <mxCell id="mCA-1Tcpxw28HGwV2KC4-22" value="«interface»&lt;br&gt;&lt;b&gt;Service&lt;br&gt;&lt;/b&gt;&lt;div&gt;public void start();&lt;/div&gt;&lt;div&gt;&lt;span&gt;	&lt;/span&gt;public void stop();&lt;/div&gt;" style="html=1;" vertex="1" parent="mCA-1Tcpxw28HGwV2KC4-33">
          <mxGeometry x="130" width="180" height="60" as="geometry" />
        </mxCell>
        <mxCell id="mCA-1Tcpxw28HGwV2KC4-23" value="Extends" style="endArrow=block;endSize=16;endFill=0;html=1;entryX=0.5;entryY=1;entryDx=0;entryDy=0;exitX=0.5;exitY=0;exitDx=0;exitDy=0;" edge="1" parent="mCA-1Tcpxw28HGwV2KC4-33" source="mCA-1Tcpxw28HGwV2KC4-20" target="mCA-1Tcpxw28HGwV2KC4-22">
          <mxGeometry width="160" relative="1" as="geometry">
            <mxPoint x="210" y="119" as="sourcePoint" />
            <mxPoint x="-229.79999999999995" y="-298.976" as="targetPoint" />
          </mxGeometry>
        </mxCell>
        <mxCell id="mCA-1Tcpxw28HGwV2KC4-24" value="" style="endArrow=block;dashed=1;endFill=0;endSize=12;html=1;entryX=0.5;entryY=1;entryDx=0;entryDy=0;exitX=0.5;exitY=0;exitDx=0;exitDy=0;" edge="1" parent="mCA-1Tcpxw28HGwV2KC4-33" source="mCA-1Tcpxw28HGwV2KC4-16" target="mCA-1Tcpxw28HGwV2KC4-20">
          <mxGeometry width="160" relative="1" as="geometry">
            <mxPoint x="-270" y="290" as="sourcePoint" />
            <mxPoint x="-110" y="290" as="targetPoint" />
          </mxGeometry>
        </mxCell>
        <mxCell id="mCA-1Tcpxw28HGwV2KC4-16" value="ExecutionServiceProcessor" style="swimlane;fontStyle=0;childLayout=stackLayout;horizontal=1;startSize=26;fillColor=none;horizontalStack=0;resizeParent=1;resizeParentMax=0;resizeLast=0;collapsible=1;marginBottom=0;" vertex="1" parent="mCA-1Tcpxw28HGwV2KC4-33">
          <mxGeometry y="290" width="440" height="180" as="geometry" />
        </mxCell>
        <mxCell id="mCA-1Tcpxw28HGwV2KC4-17" value="	protected final Logger logger = LoggerFactory.getLogger(getClass());&#xa;	protected String serviceName;&#xa;	private ThreadPoolExecutor executor;&#xa;	private int poolSize = 1;&#xa;&#xa;@Override public void executeProcessor(Processor processor, Object message)&#xa;@Override public void start()&#xa;@Override public void stop()&#xa;public void init()&#xa;" style="text;strokeColor=none;fillColor=none;align=left;verticalAlign=top;spacingLeft=4;spacingRight=4;overflow=hidden;rotatable=0;points=[[0,0.5],[1,0.5]];portConstraint=eastwest;" vertex="1" parent="mCA-1Tcpxw28HGwV2KC4-16">
          <mxGeometry y="26" width="440" height="154" as="geometry" />
        </mxCell>
        <mxCell id="mCA-1Tcpxw28HGwV2KC4-29" value="«interface»&lt;br&gt;&lt;b&gt;Runnable&lt;br&gt;&lt;/b&gt;" style="html=1;" vertex="1" parent="mCA-1Tcpxw28HGwV2KC4-33">
          <mxGeometry x="525" y="155" width="180" height="60" as="geometry" />
        </mxCell>
        <mxCell id="mCA-1Tcpxw28HGwV2KC4-25" value="Worker" style="swimlane;fontStyle=0;childLayout=stackLayout;horizontal=1;startSize=26;fillColor=none;horizontalStack=0;resizeParent=1;resizeParentMax=0;resizeLast=0;collapsible=1;marginBottom=0;" vertex="1" parent="mCA-1Tcpxw28HGwV2KC4-33">
          <mxGeometry x="520" y="290" width="190" height="90" as="geometry" />
        </mxCell>
        <mxCell id="mCA-1Tcpxw28HGwV2KC4-26" value="private Job job = null;&#xa;@Override&#xa;		public void run()" style="text;strokeColor=none;fillColor=none;align=left;verticalAlign=top;spacingLeft=4;spacingRight=4;overflow=hidden;rotatable=0;points=[[0,0.5],[1,0.5]];portConstraint=eastwest;" vertex="1" parent="mCA-1Tcpxw28HGwV2KC4-25">
          <mxGeometry y="26" width="190" height="64" as="geometry" />
        </mxCell>
        <mxCell id="mCA-1Tcpxw28HGwV2KC4-30" value="" style="endArrow=block;dashed=1;endFill=0;endSize=12;html=1;entryX=0.5;entryY=1;entryDx=0;entryDy=0;" edge="1" parent="mCA-1Tcpxw28HGwV2KC4-33" source="mCA-1Tcpxw28HGwV2KC4-25" target="mCA-1Tcpxw28HGwV2KC4-29">
          <mxGeometry width="160" relative="1" as="geometry">
            <mxPoint x="230" y="300" as="sourcePoint" />
            <mxPoint x="230" y="225" as="targetPoint" />
          </mxGeometry>
        </mxCell>
        <mxCell id="mCA-1Tcpxw28HGwV2KC4-32" value="inner cls" style="endArrow=open;startArrow=circlePlus;endFill=0;startFill=0;endSize=8;html=1;entryX=1.009;entryY=0.208;entryDx=0;entryDy=0;entryPerimeter=0;exitX=0;exitY=0.5;exitDx=0;exitDy=0;" edge="1" parent="mCA-1Tcpxw28HGwV2KC4-33" source="mCA-1Tcpxw28HGwV2KC4-26" target="mCA-1Tcpxw28HGwV2KC4-17">
          <mxGeometry width="160" relative="1" as="geometry">
            <mxPoint x="470" y="440" as="sourcePoint" />
            <mxPoint x="630" y="440" as="targetPoint" />
          </mxGeometry>
        </mxCell>
        <mxCell id="mCA-1Tcpxw28HGwV2KC4-34" value="association" style="endArrow=block;startArrow=block;endFill=1;startFill=1;html=1;exitX=1;exitY=0;exitDx=0;exitDy=0;entryX=0;entryY=0;entryDx=0;entryDy=0;" edge="1" parent="mCA-1Tcpxw28HGwV2KC4-36">
          <mxGeometry width="160" relative="1" as="geometry">
            <mxPoint x="440" y="550" as="sourcePoint" />
            <mxPoint x="560" y="550" as="targetPoint" />
          </mxGeometry>
        </mxCell>
        <mxCell id="mCA-1Tcpxw28HGwV2KC4-35" value="Extends" style="endArrow=block;endSize=16;endFill=0;html=1;entryX=0.489;entryY=1.006;entryDx=0;entryDy=0;entryPerimeter=0;exitX=0.5;exitY=0;exitDx=0;exitDy=0;" edge="1" parent="mCA-1Tcpxw28HGwV2KC4-36" source="mCA-1Tcpxw28HGwV2KC4-10" target="mCA-1Tcpxw28HGwV2KC4-17">
          <mxGeometry width="160" relative="1" as="geometry">
            <mxPoint x="510" y="470" as="sourcePoint" />
            <mxPoint x="670" y="470" as="targetPoint" />
          </mxGeometry>
        </mxCell>
        <mxCell id="mCA-1Tcpxw28HGwV2KC4-10" value="NbiServiceProcessor" style="swimlane;fontStyle=0;childLayout=stackLayout;horizontal=1;startSize=26;fillColor=none;horizontalStack=0;resizeParent=1;resizeParentMax=0;resizeLast=0;collapsible=1;marginBottom=0;" vertex="1" parent="mCA-1Tcpxw28HGwV2KC4-36">
          <mxGeometry x="570" y="550" width="310" height="140" as="geometry" />
        </mxCell>
        <mxCell id="mCA-1Tcpxw28HGwV2KC4-11" value="	private ProcessorFactory processorFactory = null;&#xa;	private long commandTimeout = 30000L;&#xa;&#xa;@Override public void start()&#xa;@Override public void stop()&#xa;public void processRequest(Exchange message)&#xa;" style="text;strokeColor=none;fillColor=none;align=left;verticalAlign=top;spacingLeft=4;spacingRight=4;overflow=hidden;rotatable=0;points=[[0,0.5],[1,0.5]];portConstraint=eastwest;" vertex="1" parent="mCA-1Tcpxw28HGwV2KC4-10">
          <mxGeometry y="26" width="310" height="114" as="geometry" />
        </mxCell>
      </root>
    </mxGraphModel>
  </diagram>
</mxfile>
